<svg width="24" height="24" viewBox="0 0 24 24" fill="none" xmlns="http://www.w3.org/2000/svg">
<g clip-path="url(#clip0_96_688)">
<path d="M18.582 0.907038C17.8206 0.729228 17.0316 0.703129 16.2601 0.830231C15.4887 0.957332 14.7497 1.23515 14.0856 1.64781C13.4215 2.06047 12.8452 2.59991 12.3895 3.23531C11.9339 3.87071 11.6078 4.58963 11.43 5.35104L11.409 5.44204C11.1078 6.51783 11.1162 7.65675 11.433 8.72804L8.83301 11.957L12.884 11.086C13.5459 11.7506 14.353 12.2526 15.2417 12.5525C16.1305 12.8524 17.0767 12.9421 18.0059 12.8144C18.9352 12.6868 19.8222 12.3453 20.5971 11.8168C21.372 11.2884 22.0138 10.5873 22.472 9.76889C22.9302 8.95042 23.1922 8.03682 23.2375 7.09993C23.2829 6.16304 23.1102 5.2284 22.7332 4.36952C22.3562 3.51064 21.7851 2.75093 21.0648 2.15012C20.3445 1.54932 19.4946 1.1238 18.582 0.907038Z" stroke="#023047" stroke-width="1.5" stroke-linecap="round" stroke-linejoin="round"/>
<path d="M17.2451 10.007C17.038 10.007 16.8701 9.83913 16.8701 9.63202C16.8701 9.42491 17.038 9.25702 17.2451 9.25702" stroke="#023047" stroke-width="1.5"/>
<path d="M17.2451 10.007C17.4522 10.007 17.6201 9.83913 17.6201 9.63202C17.6201 9.42491 17.4522 9.25702 17.2451 9.25702" stroke="#023047" stroke-width="1.5"/>
<path d="M17.2451 6.88202V3.88202" stroke="#023047" stroke-width="1.5" stroke-linecap="round" stroke-linejoin="round"/>
<path d="M12.75 14.75V20.518C12.75 21.2426 12.4622 21.9375 11.9498 22.4498C11.4375 22.9622 10.7426 23.25 10.018 23.25H3.25C2.58696 23.25 1.95107 22.9866 1.48223 22.5178C1.01339 22.0489 0.75 21.413 0.75 20.75V4.75C0.75 4.08696 1.01339 3.45107 1.48223 2.98223C1.95107 2.51339 2.58696 2.25 3.25 2.25H8.25" stroke="#023047" stroke-width="1.5" stroke-linecap="round" stroke-linejoin="round"/>
<path d="M0.75 18.75H12.75" stroke="#023047" stroke-width="1.5" stroke-linecap="round" stroke-linejoin="round"/>
</g>
<defs>
<clipPath id="clip0_96_688">
<rect width="24" height="24" fill="white"/>
</clipPath>
</defs>
</svg>
