<svg width="26" height="26" viewBox="0 0 26 26" fill="none" xmlns="http://www.w3.org/2000/svg">
<circle cx="13" cy="13" r="13" fill="#668598"/>
<path d="M18.5 16.5C18.5 16.7652 18.3946 17.0196 18.2071 17.2071C18.0196 17.3946 17.7652 17.5 17.5 17.5H8.5C8.23478 17.5 7.98043 17.3946 7.79289 17.2071C7.60536 17.0196 7.5 16.7652 7.5 16.5V11C7.5 10.7348 7.60536 10.4804 7.79289 10.2929C7.98043 10.1054 8.23478 10 8.5 10H10.5L11.5 8.5H14.5L15.5 10H17.5C17.7652 10 18.0196 10.1054 18.2071 10.2929C18.3946 10.4804 18.5 10.7348 18.5 11V16.5Z" stroke="#E8E8E8" stroke-linecap="round" stroke-linejoin="round"/>
<path d="M13 15.5C14.1046 15.5 15 14.6046 15 13.5C15 12.3954 14.1046 11.5 13 11.5C11.8954 11.5 11 12.3954 11 13.5C11 14.6046 11.8954 15.5 13 15.5Z" stroke="#E8E8E8" stroke-linecap="round" stroke-linejoin="round"/>
</svg>
