<svg width="65" height="65" viewBox="0 0 65 65" fill="none" xmlns="http://www.w3.org/2000/svg">
<circle cx="32.8333" cy="32.1667" r="26.3333" fill="#BDE8D4"/>
<path d="M59.1667 30.0467V32.5C59.1634 38.2505 57.3014 43.8458 53.8583 48.4516C50.4152 53.0573 45.5755 56.4267 40.061 58.0571C34.5465 59.6876 28.6527 59.4918 23.2586 57.4989C17.8645 55.5061 13.2591 51.823 10.1293 46.9989C6.99942 42.1748 5.51282 36.4682 5.89118 30.7302C6.26954 24.9922 8.49259 19.5302 12.2288 15.1589C15.965 10.7876 21.0141 7.74106 26.6232 6.47377C32.2323 5.20647 38.1008 5.78628 43.3534 8.12671" stroke="#2BB673" stroke-width="3" stroke-linecap="round" stroke-linejoin="round"/>
<path d="M59.1667 11.1666L32.5 37.86L24.5 29.86" stroke="#2BB673" stroke-width="3" stroke-linecap="round" stroke-linejoin="round"/>
</svg>
