<svg width="16" height="16" viewBox="0 0 16 16" fill="none" xmlns="http://www.w3.org/2000/svg">
<g clip-path="url(#clip0_96_769)">
<path d="M12.5046 11.3267V14.8747C12.5045 15.0387 12.4392 15.1959 12.3232 15.3119C12.2073 15.4279 12.05 15.4931 11.886 15.4933H1.12331C0.959279 15.4931 0.802021 15.4279 0.686037 15.3119C0.570053 15.1959 0.504815 15.0387 0.504639 14.8747V8.44533C0.504639 8.28125 0.569819 8.12389 0.685842 8.00786C0.801864 7.89184 0.959225 7.82666 1.12331 7.82666H7.83797" stroke="#023047" stroke-linecap="round" stroke-linejoin="round"/>
<path d="M6.50464 9.99329V13.3266" stroke="#023047" stroke-linecap="round" stroke-linejoin="round"/>
<path d="M3.50464 9.99329V13.3266" stroke="#023047" stroke-linecap="round" stroke-linejoin="round"/>
<path d="M9.50464 9.99329V13.3266" stroke="#023047" stroke-linecap="round" stroke-linejoin="round"/>
<path d="M11.4954 7.82063L8.18206 4.50663C7.74269 4.06725 7.49585 3.47133 7.49585 2.84996C7.49585 2.22859 7.74269 1.63267 8.18206 1.19329C8.62144 0.753919 9.21736 0.50708 9.83873 0.50708C10.4601 0.50708 11.056 0.753919 11.4954 1.19329L14.8087 4.50663C15.0312 4.72309 15.2085 4.98161 15.3302 5.26715C15.452 5.5527 15.5158 5.85959 15.5179 6.17C15.52 6.4804 15.4605 6.78815 15.3427 7.07535C15.2249 7.36255 15.0513 7.62348 14.8318 7.843C14.6123 8.06252 14.3514 8.23625 14.0642 8.35409C13.777 8.47193 13.4693 8.53155 13.1589 8.52946C12.8485 8.52738 12.5416 8.46365 12.256 8.34196C11.9705 8.22028 11.7119 8.04307 11.4954 7.82063Z" stroke="#023047" stroke-linecap="round" stroke-linejoin="round"/>
<path d="M9.83862 6.16398L13.152 2.84998" stroke="#023047" stroke-linecap="round" stroke-linejoin="round"/>
</g>
<defs>
<clipPath id="clip0_96_769">
<rect width="16" height="16" fill="white"/>
</clipPath>
</defs>
</svg>
