<svg width="73" height="64" viewBox="0 0 73 64" fill="none" xmlns="http://www.w3.org/2000/svg">
<path d="M27.077 43.735C24.5266 43.735 22.099 43.7375 19.6715 43.735C18.8598 43.735 18.0429 43.7631 17.2363 43.7017C15.8765 43.5967 15.0648 42.8054 15.0469 41.4636C15.0289 40.0399 15.8586 39.1539 17.3054 39.1206C20.1478 39.0566 22.9927 39.136 25.8351 39.0617C27.392 39.0207 28.4445 37.9017 28.3369 36.5164C28.2217 35.0158 27.3408 34.2271 25.8351 34.1605C25.4305 34.1426 25.0234 34.1528 24.6162 34.1528C18.5806 34.1528 12.5451 34.1528 6.5095 34.1503C6.10235 34.1503 5.6952 34.1733 5.29061 34.14C3.79772 34.0197 2.76832 33.0261 2.87587 31.715C2.9911 30.2887 3.85149 29.5154 5.26756 29.4488C6.48389 29.3925 7.70535 29.4309 8.92424 29.4309C16.235 29.4309 23.5484 29.436 30.8592 29.4258C32.8412 29.4232 33.9807 28.4937 33.9704 26.9496C33.9602 25.4209 32.8053 24.5195 30.8182 24.4913C30.2369 24.4836 29.6582 24.4887 29.0769 24.4887C27.5098 24.4887 25.9427 24.5041 24.3755 24.4836C22.5292 24.458 21.5485 23.6335 21.5536 22.1508C21.5587 20.6912 22.542 19.8488 24.3986 19.8334C28.1116 19.8001 31.8271 19.8539 35.5401 19.7899C37.1406 19.7617 38.1521 18.7016 38.0701 17.2932C37.9831 15.7721 37.0766 15.0116 35.5965 14.904C35.0767 14.8682 34.5517 14.8836 34.0293 14.8836C28.0527 14.8836 22.076 14.8861 16.0968 14.8784C15.518 14.8784 14.7652 15.0372 14.399 14.7453C13.6667 14.1589 12.8063 13.3855 12.6168 12.5482C12.3402 11.3396 13.2365 10.5022 14.4784 10.2641C14.9829 10.1668 15.518 10.2154 16.0404 10.2154C24.5701 10.2128 33.1024 10.1949 41.6321 10.2359C42.6896 10.241 43.2735 9.94397 43.7933 8.98115C47.9391 1.30161 56.8989 -1.60222 64.5017 2.2081C72.1274 6.02867 75.1593 15.0884 71.3695 23.0291C66.4248 33.3897 61.4058 43.717 56.3945 54.0469C52.7148 61.6317 44.9072 65.1424 37.307 62.6739C29.7965 60.2335 25.6046 52.8767 26.9977 44.5877C27.0309 44.4238 27.0335 44.2548 27.077 43.735ZM61.1881 33.0748C63.2008 28.9188 65.1495 24.9215 67.0726 20.9115C67.3978 20.2354 67.6769 19.5236 67.869 18.8014C69.1903 13.8465 66.7602 8.59192 62.1689 6.40509C57.4188 4.14399 51.5676 5.36544 48.8763 9.77752C46.2413 14.1 44.2388 18.8091 41.819 23.6258C50.2923 22.9677 56.607 26.0713 61.1881 33.0748ZM44.815 28.4578C41.4118 27.9047 39.3274 28.9418 37.9626 31.7688C36.1752 35.4767 34.3494 39.1667 32.6184 42.9002C32.0883 44.0423 31.6709 45.2791 31.4507 46.5184C30.6799 50.8614 33.6606 56.2824 37.1739 57.2427C37.1892 57.1889 37.2302 57.1274 37.2148 57.0839C37.0074 56.4847 36.8051 55.8804 36.5747 55.2888C35.1509 51.6527 35.1074 48.124 36.9588 44.5467C39.4094 39.812 41.6628 34.9748 43.9981 30.1786C44.2721 29.6178 44.5333 29.0545 44.815 28.4578Z" fill="#000080"/>
<path d="M7.71056 24.486C6.26632 24.486 4.81953 24.5244 3.37529 24.4757C1.83631 24.4245 0.883732 23.5001 0.945188 22.1353C1.00921 20.6833 1.85424 19.8844 3.27287 19.8614C6.27913 19.8101 9.28539 19.7948 12.2891 19.8639C13.8255 19.8998 14.7346 20.9138 14.627 22.2889C14.5118 23.7383 13.6411 24.4553 12.2199 24.4809C10.7168 24.509 9.21369 24.4885 7.71056 24.486Z" fill="#C83200"/>
<path d="M61.1881 33.0749C56.607 26.0714 50.2923 22.9679 41.8215 23.626C44.2414 18.8067 46.2413 14.1001 48.8788 9.77769C51.5701 5.36304 57.4188 4.14415 62.1714 6.40525C66.7653 8.59209 69.1929 13.8467 67.8715 18.8016C67.6795 19.5263 67.3978 20.2356 67.0752 20.9116C65.1495 24.9191 63.2034 28.9189 61.1881 33.0749Z" fill="#C83200"/>
<path d="M44.8151 28.4576C44.5309 29.0568 44.2722 29.6202 43.9982 30.1784C41.6629 34.9721 39.4095 39.8118 36.9589 44.5465C35.1075 48.1238 35.151 51.6525 36.5748 55.2887C36.8052 55.8802 37.0075 56.4845 37.2149 57.0837C37.2303 57.1272 37.1893 57.1887 37.174 57.2425C33.6607 56.2848 30.6775 50.8638 31.4508 46.5183C31.671 45.2789 32.0884 44.0446 32.6185 42.9C34.3495 39.1665 36.1727 35.4765 37.9627 31.7686C39.3275 28.9416 41.4119 27.902 44.8151 28.4576Z" fill="#C83200"/>
</svg>
