<svg width="24" height="24" viewBox="0 0 24 24" fill="none" xmlns="http://www.w3.org/2000/svg">
<g clip-path="url(#clip0_96_677)">
<path d="M12 2.25098V0.750977" stroke="#023047" stroke-width="1.5" stroke-linecap="round" stroke-linejoin="round"/>
<path d="M18.364 4.88803L19.425 3.82703" stroke="#023047" stroke-width="1.5" stroke-linecap="round" stroke-linejoin="round"/>
<path d="M21 11.251H22.5" stroke="#023047" stroke-width="1.5" stroke-linecap="round" stroke-linejoin="round"/>
<path d="M18.364 17.615L19.425 18.676" stroke="#023047" stroke-width="1.5" stroke-linecap="round" stroke-linejoin="round"/>
<path d="M5.63595 4.88803L4.57495 3.82703" stroke="#023047" stroke-width="1.5" stroke-linecap="round" stroke-linejoin="round"/>
<path d="M3 11.251H1.5" stroke="#023047" stroke-width="1.5" stroke-linecap="round" stroke-linejoin="round"/>
<path d="M5.63595 17.615L4.57495 18.676" stroke="#023047" stroke-width="1.5" stroke-linecap="round" stroke-linejoin="round"/>
<path d="M9 16.449V18.749C9 19.5446 9.31607 20.3077 9.87868 20.8703C10.4413 21.4329 11.2044 21.749 12 21.749C12.7956 21.749 13.5587 21.4329 14.1213 20.8703C14.6839 20.3077 15 19.5446 15 18.749V16.449" stroke="#023047" stroke-width="1.5" stroke-linecap="round" stroke-linejoin="round"/>
<path d="M6 11.251C6 12.8423 6.63214 14.3684 7.75736 15.4936C8.88258 16.6188 10.4087 17.251 12 17.251C13.5913 17.251 15.1174 16.6188 16.2426 15.4936C17.3679 14.3684 18 12.8423 18 11.251C18 9.65968 17.3679 8.13355 16.2426 7.00834C15.1174 5.88312 13.5913 5.25098 12 5.25098C10.4087 5.25098 8.88258 5.88312 7.75736 7.00834C6.63214 8.13355 6 9.65968 6 11.251Z" stroke="#023047" stroke-width="1.5" stroke-linecap="round" stroke-linejoin="round"/>
<path d="M12 21.751V23.251" stroke="#023047" stroke-width="1.5" stroke-linecap="round" stroke-linejoin="round"/>
</g>
<defs>
<clipPath id="clip0_96_677">
<rect width="24" height="24" fill="white"/>
</clipPath>
</defs>
</svg>
