<svg width="106" height="16" viewBox="0 0 106 16" fill="none" xmlns="http://www.w3.org/2000/svg">
<path d="M0.72 15V1.04H9.7V2.92H2.96V6.98H9.08V8.86H2.96V15H0.72ZM16.9922 15.24C16.1122 15.24 15.3455 15.08 14.6922 14.76C14.0522 14.4267 13.5189 13.9533 13.0922 13.34C12.6789 12.7267 12.3722 11.9733 12.1722 11.08C11.9722 10.1867 11.8722 9.16667 11.8722 8.02C11.8722 6.88667 11.9722 5.87333 12.1722 4.98C12.3722 4.07333 12.6789 3.31333 13.0922 2.7C13.5189 2.08667 14.0522 1.62 14.6922 1.3C15.3455 0.966666 16.1122 0.799999 16.9922 0.799999C17.8722 0.799999 18.6322 0.966666 19.2722 1.3C19.9255 1.62 20.4589 2.08667 20.8722 2.7C21.2989 3.31333 21.6122 4.07333 21.8122 4.98C22.0122 5.87333 22.1122 6.88667 22.1122 8.02C22.1122 9.16667 22.0122 10.1867 21.8122 11.08C21.6122 11.9733 21.2989 12.7267 20.8722 13.34C20.4589 13.9533 19.9255 14.4267 19.2722 14.76C18.6322 15.08 17.8722 15.24 16.9922 15.24ZM16.9922 13.38C17.9922 13.38 18.6989 13.0067 19.1122 12.26C19.5255 11.5 19.7322 10.4733 19.7322 9.18V6.84C19.7322 5.56 19.5255 4.54667 19.1122 3.8C18.6989 3.04 17.9922 2.66 16.9922 2.66C15.9922 2.66 15.2855 3.04 14.8722 3.8C14.4589 4.54667 14.2522 5.56 14.2522 6.84V9.2C14.2522 10.48 14.4589 11.5 14.8722 12.26C15.2855 13.0067 15.9922 13.38 16.9922 13.38ZM28.9844 15.24C28.1044 15.24 27.3377 15.08 26.6844 14.76C26.0444 14.4267 25.511 13.9533 25.0844 13.34C24.671 12.7267 24.3644 11.9733 24.1644 11.08C23.9644 10.1867 23.8644 9.16667 23.8644 8.02C23.8644 6.88667 23.9644 5.87333 24.1644 4.98C24.3644 4.07333 24.671 3.31333 25.0844 2.7C25.511 2.08667 26.0444 1.62 26.6844 1.3C27.3377 0.966666 28.1044 0.799999 28.9844 0.799999C29.8644 0.799999 30.6244 0.966666 31.2644 1.3C31.9177 1.62 32.451 2.08667 32.8644 2.7C33.291 3.31333 33.6044 4.07333 33.8044 4.98C34.0044 5.87333 34.1044 6.88667 34.1044 8.02C34.1044 9.16667 34.0044 10.1867 33.8044 11.08C33.6044 11.9733 33.291 12.7267 32.8644 13.34C32.451 13.9533 31.9177 14.4267 31.2644 14.76C30.6244 15.08 29.8644 15.24 28.9844 15.24ZM28.9844 13.38C29.9844 13.38 30.691 13.0067 31.1044 12.26C31.5177 11.5 31.7244 10.4733 31.7244 9.18V6.84C31.7244 5.56 31.5177 4.54667 31.1044 3.8C30.691 3.04 29.9844 2.66 28.9844 2.66C27.9844 2.66 27.2777 3.04 26.8644 3.8C26.451 4.54667 26.2444 5.56 26.2444 6.84V9.2C26.2444 10.48 26.451 11.5 26.8644 12.26C27.2777 13.0067 27.9844 13.38 28.9844 13.38ZM36.6166 1.04H40.7766C42.5632 1.04 43.8832 1.63333 44.7366 2.82C45.6032 4.00667 46.0366 5.74 46.0366 8.02C46.0366 10.3 45.6032 12.0333 44.7366 13.22C43.8832 14.4067 42.5632 15 40.7766 15H36.6166V1.04ZM40.6366 13.16C41.6632 13.16 42.4232 12.82 42.9166 12.14C43.4232 11.4467 43.6766 10.46 43.6766 9.18V6.86C43.6766 5.58 43.4232 4.6 42.9166 3.92C42.4232 3.22667 41.6632 2.88 40.6366 2.88H38.8366V13.16H40.6366ZM52.8487 15.24C51.6354 15.24 50.6154 15.0267 49.7888 14.6C48.9621 14.1733 48.2821 13.6067 47.7488 12.9L49.1888 11.52C49.7221 12.16 50.2888 12.6333 50.8888 12.94C51.4888 13.2333 52.1688 13.38 52.9288 13.38C53.8088 13.38 54.4821 13.18 54.9488 12.78C55.4288 12.38 55.6688 11.8067 55.6688 11.06C55.6688 10.46 55.4954 10 55.1488 9.68C54.8021 9.34667 54.2088 9.10667 53.3688 8.96L51.8488 8.72C51.1821 8.61333 50.6221 8.44 50.1688 8.2C49.7154 7.94667 49.3488 7.65333 49.0688 7.32C48.7888 6.97333 48.5821 6.59333 48.4488 6.18C48.3288 5.75333 48.2688 5.30667 48.2688 4.84C48.2688 3.52 48.6954 2.52 49.5488 1.84C50.4021 1.14667 51.5754 0.799999 53.0688 0.799999C54.1754 0.799999 55.1154 0.979999 55.8888 1.34C56.6754 1.68667 57.3087 2.18 57.7888 2.82L56.3888 4.22C56.0021 3.75333 55.5421 3.38 55.0088 3.1C54.4888 2.80667 53.8421 2.66 53.0688 2.66C52.2421 2.66 51.6088 2.84 51.1688 3.2C50.7421 3.54667 50.5288 4.06 50.5288 4.74C50.5288 5.31333 50.6954 5.76667 51.0288 6.1C51.3754 6.42 51.9821 6.65333 52.8487 6.8L54.3288 7.06C55.5821 7.28667 56.4954 7.74667 57.0687 8.44C57.6421 9.12 57.9288 9.95333 57.9288 10.94C57.9288 11.58 57.8154 12.1667 57.5888 12.7C57.3754 13.2333 57.0488 13.6867 56.6088 14.06C56.1821 14.4333 55.6488 14.7267 55.0088 14.94C54.3821 15.14 53.6621 15.24 52.8487 15.24ZM66.0809 2.92V15H63.8409V2.92H59.4609V1.04H70.4609V2.92H66.0809ZM72.6731 15V1.04H81.4131V2.92H74.9131V6.98H81.1731V8.86H74.9131V13.12H81.4131V15H72.6731ZM86.8453 15H84.6253V1.04H89.8453C91.1786 1.04 92.192 1.41333 92.8853 2.16C93.592 2.90667 93.9453 3.93333 93.9453 5.24C93.9453 6.30667 93.6853 7.18667 93.1653 7.88C92.6453 8.57333 91.8986 9 90.9253 9.16L94.1453 15H91.6653L88.7053 9.36H86.8453V15ZM89.5253 7.56C90.912 7.56 91.6053 6.92667 91.6053 5.66V4.8C91.6053 3.53333 90.912 2.9 89.5253 2.9H86.8453V7.56H89.5253ZM100.817 15.24C99.6042 15.24 98.5842 15.0267 97.7575 14.6C96.9308 14.1733 96.2508 13.6067 95.7175 12.9L97.1575 11.52C97.6908 12.16 98.2575 12.6333 98.8575 12.94C99.4575 13.2333 100.138 13.38 100.898 13.38C101.778 13.38 102.451 13.18 102.918 12.78C103.398 12.38 103.638 11.8067 103.638 11.06C103.638 10.46 103.464 10 103.118 9.68C102.771 9.34667 102.178 9.10667 101.338 8.96L99.8175 8.72C99.1508 8.61333 98.5908 8.44 98.1375 8.2C97.6842 7.94667 97.3175 7.65333 97.0375 7.32C96.7575 6.97333 96.5508 6.59333 96.4175 6.18C96.2975 5.75333 96.2375 5.30667 96.2375 4.84C96.2375 3.52 96.6642 2.52 97.5175 1.84C98.3708 1.14667 99.5442 0.799999 101.038 0.799999C102.144 0.799999 103.084 0.979999 103.858 1.34C104.644 1.68667 105.277 2.18 105.758 2.82L104.358 4.22C103.971 3.75333 103.511 3.38 102.978 3.1C102.458 2.80667 101.811 2.66 101.038 2.66C100.211 2.66 99.5775 2.84 99.1375 3.2C98.7108 3.54667 98.4975 4.06 98.4975 4.74C98.4975 5.31333 98.6642 5.76667 98.9975 6.1C99.3442 6.42 99.9508 6.65333 100.817 6.8L102.298 7.06C103.551 7.28667 104.464 7.74667 105.037 8.44C105.611 9.12 105.898 9.95333 105.898 10.94C105.898 11.58 105.784 12.1667 105.558 12.7C105.344 13.2333 105.018 13.6867 104.578 14.06C104.151 14.4333 103.618 14.7267 102.978 14.94C102.351 15.14 101.631 15.24 100.817 15.24Z" fill="#2BB673"/>
</svg>
