<svg width="32" height="32" viewBox="0 0 32 32" fill="none" xmlns="http://www.w3.org/2000/svg">
<g clip-path="url(#clip0_26_138)">
<path d="M11 19.284L19.284 11C20.3825 9.90148 20.9997 8.41156 20.9997 6.85801C20.9997 5.30446 20.3825 3.81453 19.284 2.71601C18.1855 1.61748 16.6955 1.00034 15.142 1.00034C13.5884 1.00034 12.0985 1.61748 11 2.71601L2.71598 11C1.61745 12.0985 1.00031 13.5885 1.00031 15.142C1.00031 16.6956 1.61745 18.1855 2.71598 19.284C3.8145 20.3825 5.30443 20.9997 6.85798 20.9997C8.41153 20.9997 9.90145 20.3825 11 19.284Z" stroke="#023047" stroke-width="1.5" stroke-linecap="round" stroke-linejoin="round"/>
<path d="M15.1427 15.1427L6.85736 6.85733" stroke="#023047" stroke-width="1.5" stroke-linecap="round" stroke-linejoin="round"/>
<path d="M31 22.1667C31.006 21.0625 30.7307 19.9751 30.2 19.0069C29.6692 18.0387 28.9006 17.2216 27.9666 16.6328C27.0326 16.0439 25.964 15.7027 24.8616 15.6413C23.7592 15.5799 22.6593 15.8004 21.6657 16.2818C20.672 16.7633 19.8174 17.49 19.1825 18.3932C18.5475 19.2965 18.1531 20.3467 18.0365 21.4446C17.9199 22.5426 18.0848 23.6522 18.5159 24.6687C18.9469 25.6852 19.6297 26.5752 20.5 27.2547V29C20.5 29.5304 20.7107 30.0391 21.0858 30.4142C21.4609 30.7893 21.9696 31 22.5 31H26.5C27.0305 31 27.5392 30.7893 27.9142 30.4142C28.2893 30.0391 28.5 29.5304 28.5 29V27.2547C29.2762 26.6525 29.9048 25.8812 30.338 24.9995C30.7712 24.1179 30.9976 23.149 31 22.1667Z" stroke="#023047" stroke-width="1.5" stroke-linecap="round" stroke-linejoin="round"/>
<path d="M22 22.1667C22.1326 22.1667 22.2598 22.2193 22.3536 22.3131C22.4473 22.4069 22.5 22.534 22.5 22.6667" stroke="#023047" stroke-width="1.5" stroke-linecap="round" stroke-linejoin="round"/>
<path d="M21.5 22.6667C21.5 22.534 21.5527 22.4069 21.6464 22.3131C21.7402 22.2193 21.8674 22.1667 22 22.1667" stroke="#023047" stroke-width="1.5" stroke-linecap="round" stroke-linejoin="round"/>
<path d="M22 23.1667C21.8674 23.1667 21.7402 23.114 21.6464 23.0202C21.5527 22.9264 21.5 22.7993 21.5 22.6667" stroke="#023047" stroke-width="1.5" stroke-linecap="round" stroke-linejoin="round"/>
<path d="M22.5 22.6667C22.5 22.7993 22.4473 22.9264 22.3536 23.0202C22.2598 23.114 22.1326 23.1667 22 23.1667" stroke="#023047" stroke-width="1.5" stroke-linecap="round" stroke-linejoin="round"/>
<path d="M27 22.1667C27.1326 22.1667 27.2598 22.2193 27.3536 22.3131C27.4473 22.4069 27.5 22.534 27.5 22.6667" stroke="#023047" stroke-width="1.5" stroke-linecap="round" stroke-linejoin="round"/>
<path d="M26.5 22.6667C26.5 22.534 26.5527 22.4069 26.6464 22.3131C26.7402 22.2193 26.8674 22.1667 27 22.1667" stroke="#023047" stroke-width="1.5" stroke-linecap="round" stroke-linejoin="round"/>
<path d="M27 23.1667C26.8674 23.1667 26.7402 23.114 26.6464 23.0202C26.5527 22.9264 26.5 22.7993 26.5 22.6667" stroke="#023047" stroke-width="1.5" stroke-linecap="round" stroke-linejoin="round"/>
<path d="M27.5 22.6667C27.5 22.7993 27.4473 22.9264 27.3536 23.0202C27.2598 23.114 27.1326 23.1667 27 23.1667" stroke="#023047" stroke-width="1.5" stroke-linecap="round" stroke-linejoin="round"/>
<path d="M24.5 27.6667V31" stroke="#023047" stroke-width="1.5" stroke-linecap="round" stroke-linejoin="round"/>
</g>
<defs>
<clipPath id="clip0_26_138">
<rect width="32" height="32" fill="white"/>
</clipPath>
</defs>
</svg>
