<svg width="64" height="64" viewBox="0 0 64 64" fill="none" xmlns="http://www.w3.org/2000/svg">
<path d="M31.9999 58.6668C46.7275 58.6668 58.6666 46.7278 58.6666 32.0002C58.6666 17.2726 46.7275 5.3335 31.9999 5.3335C17.2723 5.3335 5.33325 17.2726 5.33325 32.0002C5.33325 46.7278 17.2723 58.6668 31.9999 58.6668Z" fill="#EFE9FD" stroke="#5F25EB" stroke-width="3" stroke-linecap="round" stroke-linejoin="round"/>
<path d="M24.24 24.0001C24.8669 22.2178 26.1044 20.715 27.7332 19.7577C29.362 18.8005 31.277 18.4506 33.1391 18.77C35.0012 19.0893 36.6902 20.0575 37.9069 21.5028C39.1236 22.9481 39.7895 24.7774 39.7867 26.6667C39.7867 32.0001 31.7867 34.6667 31.7867 34.6667" stroke="#5F25EB" stroke-width="3" stroke-linecap="round" stroke-linejoin="round"/>
<path d="M32 45.3335H32.0267" stroke="#5F25EB" stroke-width="3" stroke-linecap="round" stroke-linejoin="round"/>
</svg>
