<svg width="116" height="16" viewBox="0 0 116 16" fill="none" xmlns="http://www.w3.org/2000/svg">
<path d="M1.52 15C1.17333 15 0.873333 14.8733 0.62 14.62C0.38 14.3667 0.26 14.0667 0.26 13.72V2.66C0.26 2.03333 0.453333 1.57333 0.84 1.28C1.24 0.973332 1.84667 0.819999 2.66 0.819999V12.9H8.32C8.89333 12.9 9.32667 13.08 9.62 13.44C9.92667 13.7867 10.08 14.3067 10.08 15H1.52ZM12.6319 15.18C12.1119 15.1133 11.7052 14.9267 11.4119 14.62C11.1185 14.3 10.9719 13.9133 10.9719 13.46C10.9719 13.1 11.0585 12.74 11.2319 12.38L15.8719 1.6C16.0985 1.08 16.4919 0.819999 17.0519 0.819999C17.5985 0.819999 17.9919 1.08 18.2319 1.6L22.8719 12.38C23.0319 12.7533 23.1119 13.1067 23.1119 13.44C23.1119 13.9067 22.9652 14.3 22.6719 14.62C22.3785 14.9267 21.9719 15.1133 21.4519 15.18L19.7519 11.26H14.3319L12.6319 15.18ZM19.0119 9.18L16.6919 3.36L16.4719 3.44L16.9319 4.58L15.0719 9.18H19.0119ZM30.3936 15.18C29.2336 15.18 28.1936 14.96 27.2736 14.52C26.3669 14.0667 25.6603 13.4467 25.1536 12.66C24.6469 11.86 24.3936 10.9533 24.3936 9.94V6C24.3936 4.98667 24.6403 4.09333 25.1336 3.32C25.6403 2.53333 26.3403 1.92 27.2336 1.48C28.1403 1.04 29.1669 0.819999 30.3136 0.819999C31.4736 0.819999 32.5003 0.999999 33.3936 1.36C34.2869 1.70667 34.9803 2.2 35.4736 2.84C35.9803 3.46667 36.2336 4.18667 36.2336 5C36.2336 5.46667 36.0803 5.83333 35.7736 6.1C35.4669 6.35333 35.0536 6.48 34.5336 6.48C34.2803 6.48 34.0403 6.45333 33.8136 6.4C33.8536 6.2 33.8736 5.9 33.8736 5.5C33.8736 4.74 33.5403 4.12 32.8736 3.64C32.2203 3.16 31.3669 2.92 30.3136 2.92C29.2736 2.92 28.4269 3.20667 27.7736 3.78C27.1203 4.35333 26.7936 5.09333 26.7936 6V9.94C26.7936 10.86 27.1269 11.6133 27.7936 12.2C28.4603 12.7733 29.3269 13.06 30.3936 13.06C31.4469 13.06 32.3069 12.8267 32.9736 12.36C33.6403 11.88 33.9736 11.26 33.9736 10.5C33.9736 10.1267 33.9536 9.84 33.9136 9.64C34.1269 9.58667 34.3603 9.56 34.6136 9.56C35.1336 9.56 35.5469 9.7 35.8536 9.98C36.1736 10.26 36.3336 10.64 36.3336 11.12C36.3336 11.9067 36.0803 12.6067 35.5736 13.22C35.0803 13.8333 34.3803 14.3133 33.4736 14.66C32.5669 15.0067 31.5403 15.18 30.3936 15.18ZM38.385 2.1C38.385 1.79333 38.4983 1.53333 38.725 1.32C38.965 1.10667 39.2583 0.999999 39.605 0.999999H48.505C48.505 1.72 48.3717 2.24667 48.105 2.58C47.8517 2.91333 47.4383 3.08 46.865 3.08H40.785V6.9H46.205C46.205 7.62 46.0717 8.14667 45.805 8.48C45.5517 8.81333 45.145 8.98 44.585 8.98H40.785V12.92H47.285C47.845 12.92 48.2517 13.0867 48.505 13.42C48.7717 13.7533 48.905 14.28 48.905 15H39.605C39.2583 15 38.965 14.8933 38.725 14.68C38.4983 14.4667 38.385 14.2 38.385 13.88V2.1ZM55.4753 15.18C54.8753 15.18 54.382 15.04 53.9953 14.76C53.6086 14.48 53.342 14.08 53.1953 13.56L49.9953 1.08C50.2886 0.906666 50.6486 0.819999 51.0753 0.819999C51.542 0.819999 51.922 0.926666 52.2153 1.14C52.522 1.35333 52.722 1.66 52.8153 2.06L54.6753 10.28L54.2953 11.7L54.4553 11.76L57.3353 1.62C57.4153 1.36667 57.5486 1.17333 57.7353 1.04C57.9353 0.893333 58.162 0.819999 58.4153 0.819999C58.682 0.819999 58.9086 0.893333 59.0953 1.04C59.2953 1.17333 59.4286 1.36667 59.4953 1.62L61.8953 10.42L61.5353 11.92L61.7353 11.98L64.0153 2.06C64.1086 1.67333 64.302 1.37333 64.5953 1.16C64.902 0.933332 65.282 0.819999 65.7353 0.819999C66.1753 0.819999 66.542 0.906666 66.8353 1.08L63.6353 13.56C63.502 14.08 63.242 14.48 62.8553 14.76C62.4686 15.04 61.9686 15.18 61.3553 15.18L58.1753 3.74L58.0353 3.78L58.3353 4.88L55.4753 15.18ZM68.3936 15.18C67.8736 15.1133 67.4669 14.9267 67.1736 14.62C66.8803 14.3 66.7336 13.9133 66.7336 13.46C66.7336 13.1 66.8203 12.74 66.9936 12.38L71.6336 1.6C71.8603 1.08 72.2536 0.819999 72.8136 0.819999C73.3603 0.819999 73.7536 1.08 73.9936 1.6L78.6336 12.38C78.7936 12.7533 78.8736 13.1067 78.8736 13.44C78.8736 13.9067 78.7269 14.3 78.4336 14.62C78.1403 14.9267 77.7336 15.1133 77.2136 15.18L75.5136 11.26H70.0936L68.3936 15.18ZM74.7736 9.18L72.4536 3.36L72.2336 3.44L72.6936 4.58L70.8336 9.18H74.7736ZM82.9561 3.1H78.0961C78.0961 1.7 78.7428 0.999999 80.0361 0.999999H90.1961C90.1961 1.69333 90.0294 2.22 89.6961 2.58C89.3761 2.92667 88.8961 3.1 88.2561 3.1H85.3561V13.34C85.3561 13.9267 85.1494 14.38 84.7361 14.7C84.3228 15.02 83.7294 15.18 82.9561 15.18V3.1ZM96.4483 15.18C95.2883 15.18 94.2483 14.96 93.3283 14.52C92.4216 14.0667 91.7149 13.4467 91.2083 12.66C90.7016 11.86 90.4483 10.9533 90.4483 9.94V6C90.4483 4.98667 90.6949 4.09333 91.1883 3.32C91.6949 2.53333 92.3949 1.92 93.2883 1.48C94.1949 1.04 95.2216 0.819999 96.3683 0.819999C97.5283 0.819999 98.5549 0.999999 99.4483 1.36C100.342 1.70667 101.035 2.2 101.528 2.84C102.035 3.46667 102.288 4.18667 102.288 5C102.288 5.46667 102.135 5.83333 101.828 6.1C101.522 6.35333 101.108 6.48 100.588 6.48C100.335 6.48 100.095 6.45333 99.8683 6.4C99.9083 6.2 99.9283 5.9 99.9283 5.5C99.9283 4.74 99.5949 4.12 98.9283 3.64C98.2749 3.16 97.4216 2.92 96.3683 2.92C95.3283 2.92 94.4816 3.20667 93.8283 3.78C93.1749 4.35333 92.8483 5.09333 92.8483 6V9.94C92.8483 10.86 93.1816 11.6133 93.8483 12.2C94.5149 12.7733 95.3816 13.06 96.4483 13.06C97.5016 13.06 98.3616 12.8267 99.0283 12.36C99.6949 11.88 100.028 11.26 100.028 10.5C100.028 10.1267 100.008 9.84 99.9683 9.64C100.182 9.58667 100.415 9.56 100.668 9.56C101.188 9.56 101.602 9.7 101.908 9.98C102.228 10.26 102.388 10.64 102.388 11.12C102.388 11.9067 102.135 12.6067 101.628 13.22C101.135 13.8333 100.435 14.3133 99.5283 14.66C98.6216 15.0067 97.5949 15.18 96.4483 15.18ZM104.44 2.66C104.44 2.06 104.64 1.60667 105.04 1.3C105.453 0.979999 106.053 0.819999 106.84 0.819999V6.9H113.2V2.66C113.2 2.06 113.406 1.60667 113.82 1.3C114.233 0.979999 114.833 0.819999 115.62 0.819999V13.34C115.62 13.9267 115.413 14.38 115 14.7C114.586 15.02 113.986 15.18 113.2 15.18V9H106.84V13.34C106.84 13.94 106.633 14.4 106.22 14.72C105.82 15.0267 105.226 15.18 104.44 15.18V2.66Z" fill="#023047"/>
</svg>
