<svg width="196" height="196" viewBox="0 0 196 196" fill="none" xmlns="http://www.w3.org/2000/svg">
<path d="M1.95996 98.0002C1.95996 171.932 81.9932 218.139 146.02 181.173C175.735 164.017 194.04 132.312 194.04 98.0002C194.04 24.0686 114.007 -22.1388 49.98 14.8272C20.265 31.9831 1.95996 63.6884 1.95996 98.0002Z" fill="#EFE9FD"/>
<path d="M41.1875 49.7925H131.189V134.5H41.1877L41.1875 49.7925Z" fill="white"/>
<path d="M41.1875 49.7925H131.189V134.5H41.1877L41.1875 49.7925Z" stroke="#946DF2" stroke-linecap="round" stroke-linejoin="round"/>
<path d="M63.6873 59.0556C63.7628 62.1118 60.5013 64.1033 57.8171 62.6404C56.5096 61.9279 55.7105 60.544 55.7474 59.0556V39.2041C55.6723 36.1479 58.9337 34.1567 61.618 35.6198C62.9251 36.3323 63.724 37.7159 63.6873 39.2041V59.0556Z" fill="#B0D9FF"/>
<path d="M63.6873 59.0556C63.7628 62.1118 60.5013 64.1033 57.8171 62.6404C56.5096 61.9279 55.7105 60.544 55.7474 59.0556V39.2041C55.6723 36.1479 58.9337 34.1567 61.618 35.6198C62.9251 36.3323 63.724 37.7159 63.6873 39.2041V59.0556Z" fill="#CDBBF9" stroke="#946DF2" stroke-linecap="round" stroke-linejoin="round"/>
<path d="M90.158 59.0556C90.2335 62.1118 86.972 64.1033 84.2878 62.6404C82.9803 61.9279 82.1814 60.544 82.2181 59.0556V39.2041C82.143 36.1479 85.4044 34.1567 88.0887 35.6198C89.3958 36.3323 90.1947 37.7159 90.1582 39.2041L90.158 59.0556Z" fill="#B0D9FF"/>
<path d="M90.158 59.0556C90.2335 62.1118 86.972 64.1033 84.2878 62.6404C82.9803 61.9279 82.1814 60.544 82.2181 59.0556V39.2041C82.143 36.1479 85.4044 34.1567 88.0887 35.6198C89.3958 36.3323 90.1947 37.7159 90.1582 39.2041L90.158 59.0556Z" fill="#CDBBF9" stroke="#946DF2" stroke-linecap="round" stroke-linejoin="round"/>
<path d="M116.629 59.0556C116.704 62.1118 113.443 64.1033 110.759 62.6404C109.451 61.9279 108.652 60.544 108.689 59.0556V39.2041C108.614 36.1479 111.875 34.1567 114.56 35.6198C115.866 36.3323 116.665 37.7159 116.629 39.2041V59.0556Z" fill="#B0D9FF"/>
<path d="M116.629 59.0556C116.704 62.1118 113.443 64.1033 110.759 62.6404C109.451 61.9279 108.652 60.544 108.689 59.0556V39.2041C108.614 36.1479 111.875 34.1567 114.56 35.6198C115.866 36.3323 116.665 37.7159 116.629 39.2041V59.0556Z" fill="#CDBBF9" stroke="#946DF2" stroke-linecap="round" stroke-linejoin="round"/>
<path d="M42.9863 155.77C42.9638 159.846 79.3469 162.396 108.476 160.361C122.013 159.415 130.35 157.664 130.339 155.77C130.362 151.695 93.9789 149.145 64.8499 151.18C51.313 152.126 42.9758 153.876 42.9863 155.77Z" fill="#B59BF6"/>
<path d="M108.546 132.119L108.546 132.118C108.537 119.983 115.011 108.769 125.525 102.71L125.275 102.276L125.525 102.71C148.144 89.6733 176.393 106.011 176.373 132.118V132.119C176.382 144.253 169.907 155.468 159.394 161.527C136.775 174.563 108.526 158.225 108.546 132.119Z" fill="#CDBBF9" stroke="#946DF2"/>
<path d="M108.046 132.118C108.026 158.61 136.691 175.189 159.644 161.96C170.312 155.812 176.882 144.432 176.873 132.118C176.893 105.627 148.227 89.0479 125.275 102.276C114.607 108.425 108.037 119.805 108.046 132.118Z" stroke="#020064" stroke-linecap="round" stroke-linejoin="round"/>
<path d="M135.499 149.101C134.169 149.102 132.894 148.573 131.955 147.631L121.936 137.617C119.257 134.841 120.588 130.207 124.331 129.275C126.007 128.858 127.779 129.333 129.021 130.531L135.504 137.014L155.912 116.605C158.762 114.005 163.357 115.465 164.184 119.232C164.534 120.825 164.087 122.488 162.986 123.691L139.041 147.634C138.103 148.575 136.828 149.103 135.499 149.101Z" fill="white" stroke="#020064" stroke-linejoin="round"/>
</svg>
