<svg width="24" height="24" viewBox="0 0 24 24" fill="none" xmlns="http://www.w3.org/2000/svg">
<g clip-path="url(#clip0_96_695)">
<path d="M12 19.7012C16.2532 19.7012 19.7012 16.2532 19.7012 12C19.7012 7.74676 16.2532 4.29883 12 4.29883C7.74676 4.29883 4.29883 7.74676 4.29883 12C4.29883 16.2532 7.74676 19.7012 12 19.7012Z" stroke="white" stroke-width="1.5" stroke-miterlimit="10" stroke-linecap="round" stroke-linejoin="round"/>
<path d="M1.03711 12C1.03711 10.7029 1.26238 9.45838 1.67594 8.30348M1.67594 15.6965C3.19277 19.9324 7.24248 22.9629 12 22.9629C18.0546 22.9629 22.9629 18.0546 22.9629 12C22.9629 7.90108 20.7134 4.32757 17.3816 2.44666M3.58161 4.97706C4.37891 4.02238 5.33556 3.20538 6.41069 2.56697M10.0965 1.20178C10.7147 1.09354 11.3508 1.03711 12 1.03711C12.6492 1.03711 13.2853 1.09354 13.9035 1.20178" stroke="white" stroke-width="1.5" stroke-miterlimit="10" stroke-linecap="round" stroke-linejoin="round"/>
<path d="M15.272 12H8.72852" stroke="white" stroke-width="1.5" stroke-linecap="round" stroke-linejoin="round"/>
<path d="M12 15.272V8.72852" stroke="white" stroke-width="1.5" stroke-linecap="round" stroke-linejoin="round"/>
</g>
<defs>
<clipPath id="clip0_96_695">
<rect width="24" height="24" fill="white"/>
</clipPath>
</defs>
</svg>
