<svg width="25" height="24" viewBox="0 0 25 24" fill="none" xmlns="http://www.w3.org/2000/svg">
<g clip-path="url(#clip0_45_940)">
<path d="M7.625 9.75C7.625 11.1424 8.17812 12.4777 9.16269 13.4623C10.1473 14.4469 11.4826 15 12.875 15C14.2674 15 15.6027 14.4469 16.5873 13.4623C17.5719 12.4777 18.125 11.1424 18.125 9.75C18.125 8.35761 17.5719 7.02226 16.5873 6.03769C15.6027 5.05312 14.2674 4.5 12.875 4.5C11.4826 4.5 10.1473 5.05312 9.16269 6.03769C8.17812 7.02226 7.625 8.35761 7.625 9.75Z" stroke="#676F6E" stroke-width="1.5" stroke-linecap="round" stroke-linejoin="round"/>
<path d="M19.788 20.876C18.8823 19.9646 17.8052 19.2412 16.6188 18.7476C15.4323 18.254 14.16 17.9999 12.875 17.9999C11.59 17.9999 10.3177 18.254 9.13132 18.7476C7.9449 19.2412 6.86782 19.9646 5.96204 20.876" stroke="#676F6E" stroke-width="1.5" stroke-linecap="round" stroke-linejoin="round"/>
<path d="M1.625 12C1.625 14.9837 2.81026 17.8452 4.92005 19.955C7.02983 22.0647 9.89131 23.25 12.875 23.25C15.8587 23.25 18.7202 22.0647 20.83 19.955C22.9397 17.8452 24.125 14.9837 24.125 12C24.125 9.01631 22.9397 6.15483 20.83 4.04505C18.7202 1.93526 15.8587 0.75 12.875 0.75C9.89131 0.75 7.02983 1.93526 4.92005 4.04505C2.81026 6.15483 1.625 9.01631 1.625 12Z" stroke="#676F6E" stroke-width="1.5" stroke-linecap="round" stroke-linejoin="round"/>
</g>
<defs>
<clipPath id="clip0_45_940">
<rect width="24" height="24" fill="white" transform="translate(0.875)"/>
</clipPath>
</defs>
</svg>
