<svg width="25" height="24" viewBox="0 0 25 24" fill="none" xmlns="http://www.w3.org/2000/svg">
<path d="M22.375 17V14M22.375 14H2.375M22.375 14H12.375V9H19.375C20.1706 9 20.9337 9.31607 21.4963 9.87868C22.0589 10.4413 22.375 11.2044 22.375 12V14ZM2.375 8V17M5.375 9C5.375 9.53043 5.58571 10.0391 5.96079 10.4142C6.33586 10.7893 6.84457 11 7.375 11C7.90543 11 8.41414 10.7893 8.78921 10.4142C9.16429 10.0391 9.375 9.53043 9.375 9C9.375 8.46957 9.16429 7.96086 8.78921 7.58579C8.41414 7.21071 7.90543 7 7.375 7C6.84457 7 6.33586 7.21071 5.96079 7.58579C5.58571 7.96086 5.375 8.46957 5.375 9Z" stroke="#676F6E" stroke-width="1.5" stroke-linecap="round" stroke-linejoin="round"/>
</svg>
