<svg width="96" height="20" viewBox="0 0 96 20" fill="none" xmlns="http://www.w3.org/2000/svg">
<g clip-path="url(#clip0_39_1023)">
<path fill-rule="evenodd" clip-rule="evenodd" d="M7.22998 2.56422C7.48995 2.56422 7.83758 2.6531 8.18521 3.00964C8.53235 3.27679 8.53235 3.8111 8.44519 4.25653C8.35853 4.61256 8.27138 4.87972 7.83758 5.14687C7.40329 5.41402 6.969 5.41402 6.969 5.41402V7.10582L7.75043 7.8184L6.969 8.44159V10.8465C6.969 10.8465 7.75043 10.3122 8.27138 9.24305L8.35853 9.06478C8.35853 9.42081 8.35853 9.95563 8.0109 10.7571C7.83708 11.2914 7.40329 11.8262 6.79519 12.1822C5.83995 12.716 5.14518 12.716 4.36376 12.6272C3.40852 12.36 2.53994 11.8262 2.01899 10.9354C1.5847 10.3122 1.41089 9.5102 1.41089 8.70874C1.49805 7.10531 2.6266 5.76954 3.92947 5.23524C4.10329 5.14636 4.18995 5.14636 4.45042 5.14636C4.36376 5.14636 4.18995 5.23524 4.01613 5.41351C3.58184 5.68015 3.23471 6.21497 3.06089 6.6604L5.66613 5.50239V9.24305L3.58184 10.3122C3.84231 10.6682 4.53708 11.203 5.14469 11.203C6.27374 11.3808 6.88135 10.847 6.88135 10.847V8.4421L6.01277 7.81891L6.88135 7.10633V5.41453C6.44167 5.31816 6.00699 5.19917 5.57898 5.05799C5.05803 4.96911 3.49468 4.52368 3.32087 4.52368C3.06039 4.4348 2.71276 4.4348 2.53944 4.61307C2.36613 4.79134 2.27947 5.0585 2.36563 5.32565C2.36563 5.50393 2.45279 5.59281 2.53944 5.68169C2.53944 5.68169 2.45279 5.68169 2.27947 5.59281C2.01899 5.41453 1.75802 5.0585 1.75802 4.61307C1.75802 4.07877 1.93184 3.54395 2.45328 3.18792C2.80042 2.92076 3.23471 2.74249 3.75566 2.83188C4.53708 2.92076 5.57947 3.36619 6.53471 3.63334C6.88185 3.72222 7.14232 3.72222 7.40329 3.54395C7.48995 3.45507 7.75043 3.27731 7.57711 3.00964C7.31663 2.65361 6.969 2.65361 6.62187 2.56422C6.88234 2.47534 6.9695 2.47534 7.22998 2.56422ZM4.10379 9.95665V6.30487L3.06189 6.83918C3.06189 6.83918 2.80141 7.46237 2.80141 8.35322C2.88807 9.0658 3.2357 9.86726 3.49618 10.2238L4.10379 9.95665ZM17.3028 6.12711C17.3028 6.12711 16.4342 6.66142 15.9133 7.01796L14.6976 7.64166V11.1147L14.1766 11.4717L14.2633 11.5606L14.6976 11.2046L16.1738 12.5403L18.779 10.492L18.6918 10.4026L17.3023 11.5606L16.0866 10.4026V10.0465L18.4314 8.26536L17.3028 6.12711ZM17.3028 8.97692L16.0871 9.86777V6.92857L17.3028 8.97692ZM10.6166 13.8756C10.9638 13.8756 11.4847 13.9645 12.2661 13.6084C13.0476 13.1635 13.3952 12.3615 13.3952 11.4712L13.4819 10.2238V7.46288L13.9161 7.10684V7.01796L13.3952 7.374L12.2661 6.12711L10.79 7.374V3.01016L8.96614 4.43531C9.0528 4.52419 9.31377 4.52419 9.31377 4.96962V11.1147L8.53235 11.649L8.61901 11.7378L8.96664 11.4717L10.0085 12.4514L11.6585 11.1147L11.5714 11.0258L11.2242 11.3818L10.79 10.9369V7.55227L11.2242 7.10684L12.0057 7.9977V10.9369C12.0057 11.7378 12.0057 12.7176 11.5714 13.1635C11.1376 13.6968 11.0504 13.6968 10.6166 13.8756ZM21.9923 13.5195C21.2976 13.4307 21.0371 13.0746 21.0371 12.7176C21.0371 12.5398 21.2976 12.0939 21.6452 12.0939C22.0795 12.005 22.4266 12.1838 22.7743 12.6287L24.3371 10.848H24.2505L23.8162 11.2929C23.469 10.848 22.8614 10.4915 22.2533 10.4021V5.14738L26.1609 12.5398C26.1609 12.5398 26.2476 12.6287 26.4214 12.6287C26.5081 12.6287 26.5081 12.5398 26.5081 12.5398V5.14738C26.8557 5.0585 27.2895 4.88023 27.55 4.70195C28.3314 3.90049 27.9843 3.01015 27.8976 2.92076C27.8976 3.27731 27.55 3.63334 27.1162 3.72222C26.5081 3.72222 26.0743 3.18792 26.0743 3.18792L24.5981 4.96911L24.6852 5.05799L25.1195 4.52368C25.6405 5.05799 25.9881 5.05799 26.4219 5.14738V9.42234L23.4695 3.98938C23.2091 3.54395 22.8619 3.09903 22.1672 3.09903C21.4724 3.09903 20.9514 3.72222 20.8648 4.34541C20.7781 4.96911 20.8648 5.14687 20.8648 5.14687C20.8648 5.14687 20.9514 4.43429 21.3857 4.43429C21.82 4.43429 21.9938 4.79032 22.1672 5.05748V6.66091C21.7329 6.66091 20.691 6.66091 20.691 7.81891C20.691 8.17494 20.9514 8.62037 21.1253 8.79864C21.3857 8.97691 21.6462 8.97692 21.6462 8.97692C21.6462 8.97692 21.2986 8.79864 21.3857 8.44261C21.4729 8.08658 22.1672 8.08658 22.1672 8.17546V10.4021C21.82 10.4021 20.8648 10.4021 20.3433 11.2929C20.0829 11.8277 20.0829 12.4514 20.43 12.8964C20.6895 13.2519 21.1238 13.6968 21.9923 13.5195ZM30.3285 6.12711C30.3285 6.12711 29.5471 6.66142 28.939 7.01796L27.7233 7.64166V11.1147L27.2023 11.4717L27.289 11.5606L27.8099 11.2046L29.1995 12.5403L31.8042 10.492L31.7176 10.4026L30.328 11.5606L29.199 10.4026V10.0465L31.4566 8.26536L30.3285 6.12711ZM30.3285 8.97692L29.1995 9.86777V6.92857L30.3285 8.97692ZM33.889 12.5398L32.5861 11.4712L32.0652 11.9161L31.978 11.8272L32.5861 11.3813V8.44261C32.5861 7.19572 31.4571 7.55227 31.5442 6.21599C31.5442 5.68168 32.0652 5.23626 32.4123 5.05799C32.6728 4.96911 33.0204 4.96911 33.0204 4.96911C33.0204 4.96911 32.4995 5.23626 32.5861 5.77057C32.76 6.48315 33.9757 6.48315 34.0623 7.46237V10.847L34.9309 11.5596L35.1914 11.3808V7.72952L34.6704 7.28409L35.8861 6.12609L37.0152 7.1947L36.5809 7.64013V10.8465L37.71 11.7363L37.8838 11.6474V7.72901L37.3628 7.28358L38.5785 6.12558L39.7938 7.10531L40.228 6.65989L40.3147 6.74877L39.2728 7.7285V10.846L36.5809 12.5378L35.1914 11.4692L33.889 12.5398ZM88.5966 6.12711C88.5966 6.12711 87.728 6.66142 87.2076 7.01796L85.9919 7.64166V11.1147L85.4704 11.4717L85.5581 11.5606L85.9919 11.2046L87.4675 12.5403L90.0733 10.492L89.9856 10.4026L88.5966 11.5606L87.3809 10.4026V10.0465L89.7261 8.26536L88.5966 6.12711ZM88.5966 8.97692L87.3809 9.86777V6.92857L88.5966 8.97692ZM76.6133 7.64115H76.6999L77.1337 7.28461L77.8285 8.08607V10.9364L77.4809 11.204L78.6104 12.5398L79.7385 11.3813L79.3047 10.8475V7.46288L79.5657 7.19573L80.3466 8.17546V11.0253L80.0861 11.2924L81.1285 12.4509L82.2571 11.3813L81.8233 10.9364V7.46288L82.0837 7.19573L82.9518 8.17546V10.9364L82.6918 11.204L83.8204 12.5398L85.3832 11.0253L85.2971 10.9364L84.9495 11.2924L84.3419 10.6692V7.46288L84.8623 7.01745V6.92857L84.2542 7.37349L83.2123 6.21599L81.7366 7.37349L80.6937 6.21599L79.2185 7.37349L78.1766 6.21599L76.6133 7.64115Z" fill="black"/>
<path fill-rule="evenodd" clip-rule="evenodd" d="M73.4872 7.5522L73.921 7.19566L74.5291 7.99712V11.204L74.0948 11.6489L74.1815 11.7373L74.6152 11.2923L75.6581 12.5397L77.1338 11.204L77.0472 11.1141L76.6134 11.4711L76.0053 10.758V7.5522L76.5257 7.10678V7.01738L76.0053 7.46281L74.9629 6.21592L73.4872 7.5522ZM73.921 4.79077L74.9629 3.81104L75.9181 4.79077L74.7896 5.85989L73.921 4.79077Z" fill="black"/>
<path fill-rule="evenodd" clip-rule="evenodd" d="M72.3576 2.56422C72.6181 2.56422 73.0524 2.6531 73.3995 3.00964C73.66 3.27679 73.7476 3.8111 73.66 4.25653C73.5733 4.61256 73.3995 4.87972 73.0519 5.14687C72.6181 5.41402 72.1843 5.41402 72.1843 5.41402V7.10582L72.9652 7.8184L72.1843 8.44159V10.8465C72.1843 10.8465 72.9652 10.3122 73.4866 9.24305L73.5733 9.06478C73.5733 9.42081 73.5733 9.95563 73.2262 10.7571C73.0519 11.2914 72.5314 11.8262 72.0105 12.1822C71.0552 12.716 70.2743 12.716 69.4919 12.6272C68.6243 12.36 67.7557 11.8262 67.2343 10.9354C66.8005 10.3122 66.6262 9.5102 66.6262 8.70874C66.6262 7.10531 67.8419 5.76954 69.1447 5.23524C69.3191 5.14636 69.4052 5.14636 69.6662 5.14636C69.4919 5.14636 69.4057 5.23524 69.2314 5.41351C68.7976 5.68015 68.4505 6.21497 68.2762 6.6604L70.8819 5.50239V9.24305L68.7971 10.3122C69.0576 10.6682 69.7523 11.203 70.3604 11.203C71.4023 11.3808 72.01 10.847 72.01 10.847V8.4421L71.229 7.81891L72.01 7.10633V5.41453C71.5762 5.32514 71.0547 5.14738 70.7076 5.05799C70.2738 4.96911 68.7104 4.52368 68.45 4.52368C68.2757 4.4348 67.9285 4.4348 67.7552 4.61307C67.5809 4.79134 67.4947 5.0585 67.4947 5.32565C67.5814 5.50393 67.6691 5.59281 67.7552 5.68169C67.7552 5.68169 67.6685 5.68169 67.4947 5.59281C67.2343 5.41453 66.9733 5.0585 66.9733 4.61307C66.8866 4.07877 67.1476 3.54395 67.5814 3.18792C68.0162 2.92076 68.45 2.74249 68.9714 2.83188C69.7523 2.92076 70.7942 3.36619 71.6628 3.63334C72.0966 3.72222 72.3576 3.72222 72.6181 3.54395C72.7047 3.45507 72.8785 3.27731 72.7047 3.00964C72.5314 2.65361 72.1843 2.65361 71.8371 2.56422C72.0971 2.47534 72.1848 2.47534 72.3576 2.56422ZM69.3191 9.95665V6.30487L68.2762 6.83918C68.2762 6.83918 67.929 7.46237 68.0167 8.35322C68.0167 9.0658 68.4505 9.86726 68.7114 10.2238L69.3191 9.95665ZM91.3757 12.9847C91.2014 13.0746 90.5071 12.8958 90.3328 12.0939C90.1595 11.2929 90.6809 10.848 91.4624 9.95665L90.5071 9.15519V7.46288C90.5071 7.46288 91.2019 7.19572 91.7228 6.83969L92.7647 6.12711C92.7647 6.12711 93.1985 6.66142 93.6333 6.57254C94.3281 6.48315 94.3281 5.94884 94.2414 5.85996C94.4147 6.03823 94.6752 6.66142 93.4595 8.17546L94.5024 8.97692V11.1141C94.5024 11.1141 93.2867 11.7378 92.2438 12.5398C92.2438 12.5398 91.6367 11.7378 91.1152 12.0939C90.6809 12.361 90.8543 12.807 91.3757 12.9847ZM90.5071 11.3813C90.5071 11.3813 91.0286 10.491 91.9838 10.6687C92.8514 10.8475 93.1124 11.7373 93.1124 11.7373V9.60061L92.5043 9.06631C91.8962 9.77838 90.6809 10.7581 90.5071 11.3813ZM91.8962 6.83969V8.532L92.4176 9.06631C92.4176 9.06631 93.6333 8.08658 94.0671 7.10684C94.0671 7.10684 93.5467 7.9083 92.7647 7.64115C92.1566 7.46288 91.8962 6.83969 91.8962 6.83969ZM53.9486 7.55227L54.3824 7.19573H54.469L54.0352 7.64115V11.0253C54.0352 11.0253 53.1667 11.4712 52.6462 11.8272L51.4305 12.5398L49.8671 11.204L49.52 11.5601H49.4333L49.8671 11.1141V7.46288C49.8671 7.46288 50.5619 7.19572 51.1695 6.83969C51.691 6.48314 52.2981 6.12711 52.2981 6.12711L53.9486 7.55227ZM51.3438 10.5803L52.5585 11.7378V8.08658L51.3438 6.92857V10.5803ZM56.9876 7.19573L57.9428 6.21599C57.9428 6.21599 58.0295 6.30488 58.2033 6.39427C58.29 6.48315 58.5505 6.57254 58.8114 6.48315C58.9847 6.39426 58.9847 6.30487 59.1586 6.21599C59.1586 7.01745 58.8114 7.55227 58.3766 7.73003C58.1172 7.81891 57.5957 7.99718 56.9876 7.28461V10.9364L57.6824 11.4712L58.1172 11.1141H58.2038L56.6405 12.5398L55.4248 11.3813L54.991 11.8272L54.9043 11.7373L55.5124 11.1136V7.99667L55.0776 7.28409L54.6438 7.64064H54.5572L56.1205 6.21548L56.9876 7.19573ZM61.069 8.79916L62.8052 6.12711C62.8052 6.12711 63.0657 6.39426 63.5005 6.48315C64.0209 6.66142 64.5424 6.12711 64.5424 6.12711C64.4557 6.83969 64.1086 7.64115 63.3266 7.73054C62.7185 7.81942 62.1109 7.28512 62.1109 7.28512L62.0243 7.55227L64.4562 11.3818L64.9766 10.9369L65.0633 11.0258L63.3271 12.5403L61.069 8.79916Z" fill="black"/>
<path fill-rule="evenodd" clip-rule="evenodd" d="M59.5923 5.23639C59.5923 4.61321 59.3319 4.25717 58.9842 4.25717L60.9824 2.9209V10.8481L61.5028 11.3819L61.8499 11.0259L61.9376 11.1148L60.3743 12.5405L59.3314 11.4718L58.8976 11.9168L58.8109 11.8279L59.5918 11.1148L59.5923 5.23639ZM43.2671 5.05812C43.2671 4.52382 43.0066 4.25666 42.659 4.25666C42.1381 4.16727 42.0514 4.96924 42.0514 4.96924C42.0514 4.96924 41.9647 4.34554 42.3985 3.90063C42.659 3.63348 43.18 3.18805 43.8747 3.36632C44.6561 3.5446 44.9166 4.16778 44.9166 4.70209V12.094C44.9166 12.094 45.1771 12.1839 45.3509 12.1839C45.6114 12.2728 45.7852 12.2728 45.7852 12.2728V3.36581H45.8719V4.6127L47.4352 3.27693L48.6509 4.34555L49.1724 3.90012H49.259L48.6509 4.43442V11.292C48.6509 11.737 48.5643 12.1829 48.13 12.4506C47.2614 13.0743 46.1328 12.3607 45.0904 12.2718C44.3957 12.093 43.2671 12.0046 42.92 12.7167C42.8333 12.8955 42.8333 13.2515 43.1805 13.5187C43.8752 13.9636 46.8276 12.7167 47.8695 13.2515C48.8252 13.6964 48.8252 14.3201 48.6509 14.8549C48.3904 15.7458 47.2614 15.9235 47.2614 15.9235C47.2614 15.9235 47.869 15.5675 47.6957 15.0337C47.609 14.7666 47.4352 14.6767 46.8271 14.7666C45.5247 14.9443 44.0485 15.5675 43.0066 15.1226C42.4857 14.8554 42.0514 14.2317 42.1381 13.5192C42.1381 12.5394 43.2671 12.1834 43.2671 12.1834V8.62051C43.1805 8.53163 42.659 8.53162 42.4857 8.79878C42.3119 9.2442 42.7462 9.42197 42.7462 9.42197C42.7462 9.42197 42.3985 9.42197 42.0514 9.06593C41.9647 8.88766 41.6171 8.35335 42.0514 7.73017C42.3119 7.28474 42.7462 7.19586 43.2671 7.19586V5.05812ZM45.8724 12.3612C45.8724 12.3612 46.3933 12.4511 46.6538 12.1834C47.0881 11.8274 47.0009 11.4708 47.0009 11.4708V8.70939C47.0009 8.70939 46.8271 8.35284 46.48 8.35284C46.1328 8.35284 45.8719 8.70939 45.8719 8.70939L45.8724 12.3612ZM47.0014 5.05812L46.3066 4.43494L45.8724 4.70209V7.28525C45.8724 7.28525 46.1328 7.55241 46.4805 7.55241C46.8281 7.55241 47.0014 7.28525 47.0014 7.28525V5.05812ZM47.0014 7.46301C47.0014 7.46301 46.8276 7.64128 46.4805 7.64128C46.1333 7.64128 45.8724 7.46301 45.8724 7.46301V8.53214C45.8724 8.53214 46.1328 8.26498 46.4805 8.26498C46.8281 8.26498 47.0014 8.53214 47.0014 8.53214V7.46301ZM57.9428 15.0342C57.9428 14.4105 57.9428 14.4105 57.6824 14.3211H57.5957V14.2323H59.8538C59.8538 14.3211 59.9405 14.6772 59.9405 14.856C59.9405 14.9448 59.8538 14.9448 59.7671 14.9448C59.6805 14.6777 59.6805 14.4999 59.42 14.411H58.5514C58.3771 14.411 58.3771 14.411 58.3771 14.5888V15.6574C58.3771 15.7473 58.3771 15.7473 58.5514 15.7473H59.3324C59.3324 15.7473 59.42 15.6574 59.42 15.5685V15.3908C59.5067 15.3009 59.5933 15.3009 59.5933 15.3908V16.3705C59.5933 16.4594 59.5067 16.4594 59.42 16.3705V16.1917C59.42 16.1028 59.3324 16.0129 59.2457 16.0129C59.159 16.0129 59.0724 15.9241 58.8986 15.9241H58.5514C58.3771 15.9241 58.3771 16.0129 58.3771 16.1028V16.8154C58.3771 17.1715 58.3771 17.3502 58.4648 17.4391C58.5514 17.4391 58.6381 17.528 59.0729 17.528C59.5067 17.528 59.681 17.528 59.7676 17.4391C59.8543 17.3502 59.941 17.172 60.1148 16.9043C60.1148 16.9043 60.2014 16.9043 60.2014 16.9932C60.2014 17.172 60.1148 17.528 60.0281 17.7063H57.5095V17.5275H57.6829C57.9433 17.5275 57.9433 17.4386 57.9433 16.9038L57.9428 15.0342ZM60.7219 15.9241C60.6352 15.8352 60.5476 15.7463 60.3748 15.7463H60.2871V15.5675H61.2423V15.7463H61.1557C60.9824 15.7463 60.9824 15.8352 61.069 15.9241L61.3295 16.2801C61.3295 16.37 61.4162 16.37 61.4162 16.37C61.4162 16.37 61.5905 16.1028 61.6766 15.9241C61.7633 15.8352 61.7633 15.7463 61.6766 15.7463H61.59V15.5675H62.3709V15.7463H62.2842C62.1976 15.7463 62.1099 15.7463 62.0238 15.8352C61.9376 15.9241 61.7633 16.1912 61.59 16.4589C61.5023 16.5478 61.5023 16.5478 61.59 16.6366L62.0238 17.3497C62.1104 17.5275 62.1981 17.5275 62.3709 17.5275H62.4576V17.7063H61.4157V17.5275H61.59C61.7633 17.5275 61.7633 17.5275 61.6766 17.4386L61.4162 16.9927C61.3295 16.9038 61.3295 16.9038 61.3295 16.8149C61.2418 16.9038 61.2418 16.9038 61.2418 16.9927L60.9824 17.3497C60.8947 17.5275 60.8947 17.5275 60.9824 17.5275H61.069C61.1557 17.6164 61.1557 17.7063 61.069 17.7063H60.3748C60.2871 17.7063 60.2871 17.6164 60.2871 17.5275H60.4614C60.5481 17.5275 60.6357 17.5275 60.7219 17.3497C60.8085 17.2598 61.069 16.9038 61.1557 16.8149C61.1557 16.726 61.2423 16.726 61.1557 16.6361L60.7219 15.9241ZM63.2405 16.2801C63.2405 16.1023 63.2405 16.0129 63.3271 15.9241C63.4138 15.8352 63.5014 15.7463 63.7609 15.7463C64.1957 15.7463 64.4562 16.1912 64.4562 16.6361C64.4562 17.1709 64.1957 17.6159 63.7609 17.6159C63.6743 17.6159 63.5014 17.527 63.4138 17.4381C63.3271 17.3492 63.2405 17.3492 63.2405 17.1709V16.2801ZM62.8928 18.4183C62.8928 18.7744 62.8928 18.8633 62.7185 18.8633L62.5452 18.9521C62.5452 18.9521 62.5452 19.042 62.6319 19.042H63.6738V18.9521L63.4133 18.8633C63.24 18.8633 63.24 18.7744 63.24 18.4183V17.8835C63.24 17.7946 63.3266 17.7058 63.3266 17.7058C63.4133 17.7058 63.5009 17.7946 63.5871 17.7946C64.368 17.7946 64.8895 17.2598 64.8895 16.4589C64.8895 15.9241 64.5424 15.568 64.0209 15.568C63.6738 15.568 63.3261 15.7468 63.3261 15.7468H63.2395V15.4797C63.0652 15.5685 62.8047 15.6574 62.718 15.7468V15.8357C62.8923 15.9246 62.8923 15.9246 62.8923 16.1917L62.8928 18.4183ZM65.6709 16.1912H65.5842C65.5842 16.0124 65.8447 15.6564 66.1924 15.6564C66.4528 15.6564 66.5395 15.8352 66.5395 16.0124V16.1023C66.4528 16.1912 66.3652 16.1912 66.018 16.1912H65.6709ZM66.6261 16.37C66.8005 16.37 66.8866 16.37 66.8866 16.2801C66.9733 16.2801 66.9733 16.2801 66.9733 16.1912C66.9733 15.8352 66.6261 15.5675 66.1924 15.5675C65.5842 15.5675 65.2371 16.1023 65.2371 16.726C65.2371 16.9922 65.2371 17.1709 65.4114 17.4386C65.5847 17.6164 65.8452 17.7946 66.1924 17.7946C66.4528 17.7946 66.8005 17.6159 66.9733 17.2598L66.8866 17.1709C66.7133 17.4381 66.5395 17.4381 66.3652 17.4381C65.8447 17.4381 65.5842 16.9922 65.5842 16.4584C65.5842 16.3695 65.5842 16.3695 65.6709 16.3695L66.6261 16.37ZM68.8843 15.6564C68.9719 15.6564 68.9719 15.7463 68.9719 15.8352C68.9719 15.9241 68.8843 16.0129 68.8843 16.0129H68.7976C68.7109 15.8352 68.4505 15.7468 68.2761 15.7468C67.929 15.7468 67.5814 16.0129 67.5814 16.5478C67.5814 16.9927 67.8419 17.4386 68.3633 17.4386C68.7104 17.4386 68.8837 17.3497 68.9714 17.1715C68.9714 17.1715 69.0581 17.1715 69.0581 17.2603C68.8838 17.6164 68.5366 17.7952 68.1895 17.7952C67.929 17.7952 67.669 17.7063 67.4947 17.528C67.3204 17.3502 67.2342 17.0831 67.2342 16.727C67.2342 16.1034 67.5814 15.5685 68.45 15.5685C68.5366 15.5675 68.7976 15.5675 68.8843 15.6564ZM70.0133 15.8352C69.9266 15.8352 69.9267 15.8352 69.9267 15.9241V16.9038C69.9267 17.2598 69.9266 17.5275 70.2738 17.5275H70.3604C70.4471 17.5275 70.5348 17.4386 70.5348 17.4386C70.5348 17.4386 70.6214 17.5275 70.5348 17.5275C70.4471 17.6164 70.2743 17.7946 70.0133 17.7946C69.5795 17.7946 69.4919 17.5275 69.4919 17.1709V16.0124C69.4919 15.8347 69.4919 15.8347 69.4052 15.8347H69.2309V15.7458C69.4052 15.6559 69.4914 15.567 69.579 15.567C69.6657 15.4781 69.7523 15.3892 69.7523 15.211C69.839 15.211 69.839 15.211 69.9267 15.2998V15.4786C69.9267 15.5675 69.9266 15.5675 70.0133 15.5675H70.5348C70.6214 15.6564 70.6214 15.8347 70.5348 15.8347L70.0133 15.8352ZM72.7924 15.8352C72.7047 15.8352 72.7047 15.8352 72.7047 15.9241V16.9038C72.7047 17.2598 72.7047 17.5275 73.0518 17.5275H73.2262L73.3128 17.4386C73.3995 17.4386 73.3995 17.5275 73.3995 17.5275C73.3128 17.6164 73.14 17.7946 72.879 17.7946C72.4452 17.7946 72.3576 17.5275 72.3576 17.1709V16.0124C72.3576 15.8347 72.3576 15.8347 72.2709 15.8347H72.0966C72.0966 15.8347 72.0099 15.7458 72.0966 15.7458C72.1843 15.6559 72.3571 15.567 72.3571 15.567C72.4447 15.4781 72.5314 15.3892 72.6176 15.211C72.6176 15.211 72.7042 15.211 72.7042 15.2998V15.4786C72.7042 15.5675 72.7042 15.5675 72.7919 15.5675H73.399V15.8347L72.7924 15.8352ZM73.9209 14.6767C73.9209 14.4105 73.9209 14.4105 73.7476 14.3206L73.6599 14.2317V14.1429C73.8343 14.1429 74.0071 14.054 74.2681 13.9641V15.8352C74.4424 15.6564 74.7028 15.568 74.9628 15.568C75.4843 15.568 75.6581 15.8352 75.6581 16.1917V17.0826C75.6581 17.4386 75.6581 17.5275 75.8314 17.5275H75.9181C76.0057 17.6164 76.0057 17.7063 75.9181 17.7063H74.9628V17.5275H75.0505C75.2238 17.5275 75.2238 17.4386 75.2238 17.0826V16.37C75.2238 16.0129 75.1371 15.7463 74.79 15.7463C74.6157 15.7463 74.4429 15.8352 74.3552 15.9241C74.2686 16.0129 74.2685 16.0129 74.2685 16.1912V17.0821C74.2685 17.4381 74.2686 17.527 74.4429 17.527H74.5295C74.6162 17.6159 74.6162 17.7058 74.5295 17.7058H73.5743V17.527H73.6609C73.9214 17.527 73.9214 17.4381 73.9214 17.0821V14.6767H73.9209ZM76.7 16.1912H76.6133C76.6133 16.0124 76.8728 15.6564 77.2204 15.6564C77.4809 15.6564 77.5686 15.8352 77.5686 16.0124V16.1023C77.4809 16.1912 77.3942 16.1912 77.0471 16.1912H76.7ZM77.6552 16.37C77.8285 16.37 77.9157 16.37 77.9157 16.2801C78.0024 16.2801 78.0023 16.2801 78.0023 16.1912C78.0023 15.8352 77.6552 15.5675 77.2204 15.5675C76.6133 15.5675 76.2652 16.1023 76.2652 16.726C76.2652 16.9922 76.2652 17.1709 76.4395 17.4386C76.6138 17.6164 76.8733 17.7946 77.2204 17.7946C77.4809 17.7946 77.8285 17.6159 78.0023 17.2598L77.9157 17.1709C77.7414 17.4381 77.5686 17.4381 77.3942 17.4381C76.8728 17.4381 76.6133 16.9922 76.6133 16.4584C76.6133 16.3695 76.6133 16.3695 76.7 16.3695L77.6552 16.37ZM79.2186 14.3206V14.2317H80.3471C80.4338 14.2317 80.4338 14.3206 80.3471 14.3206H80.2605C80.1738 14.3206 80.0861 14.4105 80.0861 14.4105C80.0861 14.4994 80.1738 14.7666 80.3466 15.1231C80.6071 15.7468 80.9547 16.4589 81.2152 17.0826C81.3885 16.8154 81.4757 16.5478 81.649 16.2806C81.649 16.1028 81.7366 16.0134 81.7366 16.0134L81.649 15.9246L81.1285 14.5888C81.0409 14.4999 80.9542 14.3216 80.7814 14.3216H80.6937C80.6071 14.3216 80.6071 14.2328 80.6937 14.2328H81.7366C81.8233 14.2328 81.8233 14.3216 81.7366 14.3216H81.649C81.4757 14.3216 81.4757 14.4116 81.5623 14.5888C81.649 14.856 81.8228 15.2125 81.9095 15.5685C81.9961 15.3014 82.0838 15.1236 82.2566 14.856C82.4309 14.411 82.3433 14.3211 82.2566 14.3211H82.0833C81.9956 14.2323 82.0833 14.2323 82.0833 14.2323H83.0385C83.0385 14.2323 83.1252 14.3211 83.0385 14.3211H82.8642C82.6909 14.3211 82.6037 14.5883 82.5171 14.7671C82.3428 15.0342 82.1699 15.4797 82.0833 15.6569V15.9246C82.2566 16.2806 82.4304 16.7265 82.6037 17.0831C82.778 16.727 82.8642 16.3705 83.0385 16.0134C83.1252 15.7473 83.4723 15.0347 83.4723 14.9448C83.559 14.7671 83.6466 14.4999 83.6466 14.411C83.6466 14.411 83.559 14.3211 83.4723 14.3211H83.298V14.2323H84.2532C84.3409 14.2323 84.3409 14.3211 84.2532 14.3211H84.1666C83.9061 14.3211 83.9061 14.4999 83.5585 15.212L83.2113 16.1028C82.9509 16.6366 82.7775 17.1715 82.6032 17.7946H82.4299C82.2578 17.2774 82.0548 16.7716 81.8218 16.2801C81.6475 16.6361 81.3004 17.3497 81.2137 17.7946H81.0394C80.9527 17.5275 80.7799 17.0821 80.6923 16.9038C80.3451 16.1912 80.0842 15.4791 79.737 14.6772C79.6504 14.4994 79.5637 14.3211 79.3899 14.3211L79.2186 14.3206ZM85.5576 16.726C85.5576 17.0821 85.4699 17.6159 85.0362 17.6159C84.5147 17.6159 84.3414 17.0821 84.3414 16.6361C84.3414 16.0124 84.6019 15.6564 84.9495 15.6564C85.3833 15.6564 85.5576 16.2801 85.5576 16.726ZM84.9495 15.5675C84.428 15.5675 83.9066 16.0124 83.9066 16.6361C83.9066 17.3492 84.3414 17.7946 84.9495 17.7946C85.5576 17.7946 85.9914 17.2598 85.9914 16.6361C85.9914 16.0124 85.5576 15.5675 84.9495 15.5675ZM86.6862 16.1912C86.6862 15.9241 86.6862 15.9241 86.5995 15.8352H86.5128V15.7463C86.5995 15.6564 86.9466 15.5675 87.0333 15.4791V15.8352H87.1199C87.2943 15.6564 87.4671 15.568 87.6414 15.568C87.8157 15.568 87.9019 15.6569 87.9019 15.7468C87.9019 15.9246 87.7276 16.0129 87.6414 16.0129C87.6414 16.0129 87.5547 16.0129 87.5547 15.9241C87.4671 15.9241 87.3804 15.8352 87.2943 15.8352C87.2081 15.8352 87.2076 15.9241 87.1199 16.0129C87.1199 16.0129 87.0333 16.1917 87.0333 16.37V17.0826C87.0333 17.4386 87.1199 17.5275 87.2938 17.5275H87.4671V17.7063H86.4252C86.3385 17.7063 86.3385 17.6164 86.4252 17.5275H86.5128C86.6862 17.5275 86.6862 17.4386 86.6862 17.0826V16.1912ZM88.6828 17.0821C88.6828 17.4381 88.6828 17.527 88.8571 17.527H89.0304V17.7058H87.9885V17.527H88.1628C88.3362 17.527 88.3362 17.4381 88.3362 17.0821V14.6767C88.3362 14.4105 88.3362 14.4105 88.1628 14.3206V14.2317C88.0752 14.2317 88.0752 14.1429 88.1628 14.1429C88.2495 14.1429 88.51 14.054 88.6833 13.9641V17.0821H88.6828ZM90.9409 17.1709C90.9409 17.2598 90.9409 17.3497 90.8542 17.3497C90.7676 17.4386 90.5938 17.5275 90.5071 17.5275C89.9857 17.5275 89.7262 17.0826 89.7262 16.5478C89.7262 16.1028 89.9857 15.6569 90.421 15.6569C90.5943 15.6569 90.7681 15.8357 90.8547 15.9241C90.8547 16.0129 90.9414 16.0129 90.9414 16.1028L90.9409 17.1709ZM91.288 14.5883V13.9646C91.0286 14.0545 90.8542 14.1434 90.6809 14.1434V14.2323L90.7676 14.3211C90.9409 14.411 90.9409 14.411 90.9409 14.6772V15.4791C90.9409 15.568 90.9409 15.568 90.8542 15.568H90.5071C89.8124 15.568 89.2914 16.0129 89.2914 16.7265C89.2914 17.2603 89.7262 17.7952 90.2466 17.7952C90.5071 17.7952 90.6814 17.7063 90.8547 17.528H90.9414V17.7957C91.1157 17.7957 91.4628 17.7068 91.6367 17.6169C91.7233 17.6169 91.7233 17.528 91.6367 17.4391C91.549 17.528 91.4624 17.528 91.4624 17.528C91.288 17.528 91.288 17.3502 91.288 16.9043V14.5883ZM93.0252 14.4105C93.0252 14.4105 93.0252 14.3206 93.1119 14.3206C93.3723 14.3206 93.459 14.4994 93.459 14.6767C93.459 14.8554 93.3723 15.0337 93.1985 15.0337C93.0252 15.0337 93.0252 15.0337 93.0252 14.9438V14.4105ZM92.7647 15.3903C92.7647 15.6564 92.7647 15.6564 92.6781 15.6564L92.5914 15.7463H93.198C93.2857 15.7463 93.2857 15.7463 93.198 15.7463L93.1114 15.6564C93.0247 15.6564 93.0247 15.6564 93.0247 15.3903V15.2115C93.0247 15.1226 93.0247 15.1226 93.1114 15.1226H93.198C93.2857 15.3004 93.3723 15.3898 93.4585 15.4786C93.5461 15.7458 93.719 15.8347 93.8933 15.8347C93.8933 15.8347 93.9799 15.8347 93.9799 15.7458C93.9799 15.7458 93.8933 15.7458 93.8933 15.6559C93.719 15.567 93.6328 15.3898 93.4585 15.1221V15.0332C93.5461 14.9433 93.719 14.8544 93.719 14.6762C93.719 14.3201 93.3718 14.2312 93.1975 14.2312H92.5904V14.3201H92.6771C92.7637 14.3201 92.7637 14.41 92.7637 14.6762V15.3903H92.7647ZM93.1985 16.37C93.9804 16.37 94.5885 15.7463 94.5885 15.0342C94.5885 14.2323 93.9804 13.6974 93.1985 13.6974C92.4176 13.6974 91.8961 14.2323 91.8961 15.0342C91.8961 15.7463 92.4171 16.37 93.1985 16.37ZM92.07 15.0342C92.07 14.3211 92.5914 13.7873 93.1985 13.7873C93.8938 13.7873 94.3281 14.3211 94.3281 15.0342C94.3281 15.6569 93.8943 16.1917 93.1985 16.1917C92.5914 16.1912 92.07 15.6564 92.07 15.0342Z" fill="black"/>
</g>
<defs>
<clipPath id="clip0_39_1023">
<rect width="96" height="20" fill="white"/>
</clipPath>
</defs>
</svg>
