<svg width="24" height="24" viewBox="0 0 24 24" fill="none" xmlns="http://www.w3.org/2000/svg">
<g clip-path="url(#clip0_96_673)">
<path d="M18.75 9.25V7.75C18.75 7.48478 18.6446 7.23043 18.4571 7.04289C18.2696 6.85536 18.0152 6.75 17.75 6.75H12.75V1.75C12.75 1.48478 12.6446 1.23043 12.4571 1.04289C12.2696 0.855357 12.0152 0.75 11.75 0.75H7.75C7.48478 0.75 7.23043 0.855357 7.04289 1.04289C6.85536 1.23043 6.75 1.48478 6.75 1.75V6.75H1.75C1.48478 6.75 1.23043 6.85536 1.04289 7.04289C0.855357 7.23043 0.75 7.48478 0.75 7.75V11.75C0.75 12.0152 0.855357 12.2696 1.04289 12.4571C1.23043 12.6446 1.48478 12.75 1.75 12.75H6.75V17.75C6.75 18.0152 6.85536 18.2696 7.04289 18.4571C7.23043 18.6446 7.48478 18.75 7.75 18.75H9.25" stroke="#023047" stroke-width="1.5" stroke-linecap="round" stroke-linejoin="round"/>
<path d="M18.1639 12.789C18.7252 12.2273 19.4867 11.9115 20.2808 11.9113C21.075 11.911 21.8367 12.2262 22.3984 12.7875C22.9601 13.3488 23.2759 14.1103 23.2761 14.9044C23.2764 15.6986 22.9612 16.4603 22.3999 17.022L17.1089 22.313C16.5635 22.8905 15.811 23.2277 15.017 23.2504C14.2229 23.2731 13.4524 22.9794 12.8749 22.434C12.2974 21.8886 11.9602 21.1361 11.9375 20.3421C11.9148 19.548 12.2085 18.7775 12.7539 18.2C12.7929 18.159 12.8339 18.118 12.8759 18.079L18.1639 12.789Z" stroke="#023047" stroke-width="1.5" stroke-linecap="round" stroke-linejoin="round"/>
<path d="M15.5181 15.435L19.7511 19.667" stroke="#023047" stroke-width="1.5" stroke-linecap="round" stroke-linejoin="round"/>
</g>
<defs>
<clipPath id="clip0_96_673">
<rect width="24" height="24" fill="white"/>
</clipPath>
</defs>
</svg>
